<?xml version="1.0" encoding="utf-8"?>
<!-- Generator: Adobe Illustrator 22.0.1, SVG Export Plug-In . SVG Version: 6.00 Build 0)  -->
<svg version="1.1" id="Layer_1" xmlns="http://www.w3.org/2000/svg" xmlns:xlink="http://www.w3.org/1999/xlink" x="0px" y="0px"
	 viewBox="0 0 379.9 137.3" style="enable-background:new 0 0 379.9 137.3;" xml:space="preserve">
<style type="text/css">
	.st0{fill:#DEDC00;}
	.st1{fill:#82368C;}
	.st2{fill:#E6007E;}
	.st3{fill:#FFED00;}
</style>
<circle class="st0" cx="29" cy="52.8" r="23.2"/>
<path class="st1" d="M50.8,43.4c-1.6,0-3.1,0.1-4.7,0.4v28.7l12.2-17.1H69L55.6,73.2L69,92.8H58.1l-12-18.1v18.1h-9.6V47.3
	c-8.7,5-14.6,14.3-14.6,25.1c0,16,12.9,28.9,28.9,28.9s28.9-12.9,28.9-28.9S66.8,43.4,50.8,43.4z"/>
<circle class="st2" cx="67.4" cy="29.3" r="12.6"/>
<circle class="st3" cx="42.5" cy="15.3" r="8.3"/>
<g>
	<path class="st2" d="M133.7,119.8c0-4,3.2-7,6.9-7c2,0,3.2,0.7,4,1.3l-1.1,1.6c-0.6-0.5-1.7-1-3-1c-2.5,0-4.9,2.1-4.9,5.1
		c0,3.2,2.4,5.1,4.9,5.1c1.5,0,2.3-0.5,2.9-1l0.9,1.5c-0.6,0.6-1.9,1.4-3.9,1.4C136.8,126.8,133.7,124.1,133.7,119.8z"/>
	<path class="st2" d="M145.7,121.7c0-3.1,2.1-5.1,4.7-5.1c2.5,0,4.7,2,4.7,5.1c0,3-2.1,5.1-4.7,5.1
		C147.8,126.8,145.7,124.8,145.7,121.7z M153.1,121.7c0-1.9-1-3.4-2.7-3.4c-1.8,0-2.8,1.6-2.8,3.4c0,1.9,1,3.4,2.8,3.4
		C152.1,125.1,153.1,123.6,153.1,121.7z"/>
	<path class="st2" d="M157.6,118.4c0-0.8-0.1-1.3-0.2-1.6h1.9c0.1,0.3,0.1,0.6,0.2,1c0.4-0.3,1.6-1.2,3.1-1.2c1.6,0,3.1,1.2,3.1,3.1
		v6.9h-1.9v-6.3c0-1.2-0.8-1.9-1.9-1.9c-1.2,0-2.2,0.8-2.5,1.1v7.2h-1.9L157.6,118.4L157.6,118.4z"/>
	<path class="st2" d="M168.8,118.4H167v-1.6h1.8v-1.1c0-2.2,1.9-3.6,3.8-3.6c1.8,0,2.7,0.8,3,1.1l-1.1,1.3c-0.3-0.3-1-0.7-1.9-0.7
		c-1.1,0-2,0.8-2,2v1h2.4v1.6h-2.4v8.1h-1.9L168.8,118.4C168.7,118.4,168.8,118.4,168.8,118.4z M174.1,116.8h1.9v9.7h-1.9V116.8z"/>
	<path class="st2" d="M178.5,121.8c0-3.3,2.3-5.1,4.6-5.1c1.1,0,1.8,0.3,2.4,0.7v-4.9l1.9-0.5v12.3c0,1,0.1,1.9,0.2,2.4h-1.9
		c-0.1-0.3-0.1-0.6-0.2-0.9c-0.5,0.4-1.3,1.1-2.8,1.1C180.2,126.8,178.5,124.9,178.5,121.8z M185.5,124.1v-5
		c-0.5-0.4-1.2-0.8-2.1-0.8c-1.6,0-2.9,1.2-2.9,3.4c0,2.3,1.3,3.4,2.6,3.4C184.3,125.1,185,124.5,185.5,124.1z"/>
	<path class="st2" d="M189.8,121.7c0-2.8,1.8-5.1,4.4-5.1c2.7,0,4.2,2.2,4.2,5.6h-6.7c0.1,1.6,1.3,2.9,3.1,2.9
		c1.3,0,2.1-0.5,2.4-0.8l0.8,1.4c-0.4,0.3-1.6,1-3.4,1C191.8,126.8,189.8,124.8,189.8,121.7z M196.4,120.7c-0.1-1.5-0.9-2.4-2.2-2.4
		s-2.3,1.1-2.4,2.4H196.4z"/>
	<path class="st2" d="M200.9,118.4c0-0.8-0.1-1.3-0.2-1.6h1.9c0.1,0.3,0.1,0.6,0.2,1c0.4-0.3,1.6-1.2,3.1-1.2c1.6,0,3.1,1.2,3.1,3.1
		v6.9h-1.9v-6.3c0-1.2-0.8-1.9-1.9-1.9c-1.2,0-2.2,0.8-2.5,1.1v7.2h-1.9L200.9,118.4L200.9,118.4z"/>
	<path class="st2" d="M211.3,121.7c0-2.9,2.1-5.1,4.9-5.1c1.5,0,2.4,0.5,3,0.9l-0.8,1.5c-0.5-0.3-1-0.7-2.1-0.7
		c-1.5,0-3.1,1.2-3.1,3.4c0,2.3,1.7,3.4,3.1,3.4c1.1,0,1.6-0.3,2.1-0.7l0.8,1.4c-0.5,0.3-1.5,0.9-3,0.9
		C213.4,126.8,211.3,124.8,211.3,121.7z"/>
	<path class="st2" d="M220.9,121.7c0-2.8,1.8-5.1,4.4-5.1c2.7,0,4.2,2.2,4.2,5.6h-6.7c0.1,1.6,1.3,2.9,3.1,2.9
		c1.3,0,2.1-0.5,2.4-0.8l0.8,1.4c-0.4,0.3-1.6,1-3.4,1C222.9,126.8,220.9,124.8,220.9,121.7z M227.5,120.7c-0.1-1.5-0.9-2.4-2.2-2.4
		s-2.3,1.1-2.4,2.4H227.5z"/>
	<path class="st2" d="M235.7,114.1c0-0.6,0.5-1.2,1.2-1.2c0.8,0,1.2,0.6,1.2,1.2c0,0.7-0.5,1.2-1.2,1.2
		C236.2,115.3,235.7,114.8,235.7,114.1z M236,116.8h1.9v9.7H236V116.8z"/>
	<path class="st2" d="M241.1,118.4c0-0.8-0.1-1.3-0.2-1.6h1.9c0.1,0.3,0.1,0.6,0.2,1c0.4-0.3,1.6-1.2,3.1-1.2c1.6,0,3.1,1.2,3.1,3.1
		v6.9h-1.9v-6.3c0-1.2-0.8-1.9-1.9-1.9c-1.2,0-2.2,0.8-2.5,1.1v7.2H241L241.1,118.4L241.1,118.4z"/>
	<path class="st2" d="M255.5,121.7c0-3.1,2.1-5.1,4.7-5.1c2.5,0,4.7,2,4.7,5.1c0,3-2.1,5.1-4.7,5.1
		C257.5,126.8,255.5,124.8,255.5,121.7z M262.9,121.7c0-1.9-1-3.4-2.7-3.4c-1.8,0-2.8,1.6-2.8,3.4c0,1.9,1,3.4,2.8,3.4
		C261.9,125.1,262.9,123.6,262.9,121.7z"/>
	<path class="st2" d="M267.3,119c0-0.8-0.1-1.5-0.2-2.2h1.9c0.1,0.2,0.1,0.4,0.2,0.7c0.6-0.4,1.6-0.9,2.8-0.9c2.3,0,4.2,2,4.2,4.9
		c0,3.1-2,5.3-4.6,5.3c-1.1,0-1.9-0.3-2.3-0.6v4.6h-1.9V119H267.3z M274.2,121.6c0-2.1-1.3-3.2-2.7-3.2c-1.1,0-1.9,0.6-2.2,0.9v5.2
		c0.4,0.3,1.2,0.6,2.1,0.6C272.9,125.1,274.2,123.8,274.2,121.6z"/>
	<path class="st2" d="M278,121.7c0-2.8,1.8-5.1,4.4-5.1c2.7,0,4.2,2.2,4.2,5.6h-6.7c0.1,1.6,1.3,2.9,3.1,2.9c1.3,0,2.1-0.5,2.4-0.8
		l0.8,1.4c-0.4,0.3-1.6,1-3.4,1C279.9,126.8,278,124.8,278,121.7z M284.5,120.7c-0.1-1.5-0.9-2.4-2.2-2.4s-2.3,1.1-2.4,2.4H284.5z"
		/>
	<path class="st2" d="M289.1,118.4c0-0.8-0.1-1.3-0.2-1.6h1.9c0.1,0.3,0.1,0.6,0.2,1c0.4-0.3,1.6-1.2,3.1-1.2c1.6,0,3.1,1.2,3.1,3.1
		v6.9h-1.9v-6.3c0-1.2-0.8-1.9-1.9-1.9c-1.2,0-2.2,0.8-2.5,1.1v7.2H289v-8.3C289,118.4,289.1,118.4,289.1,118.4z"/>
	<path class="st2" d="M304.1,125.8v-13.4l1.9-0.5v5.6c0.4-0.3,1.4-0.9,2.7-0.9c2.4,0,4.2,2,4.2,5c0,2.9-2.2,5.2-5.2,5.2
		C305.9,126.8,304.5,126.1,304.1,125.8z M311,121.6c0-2-1.1-3.3-2.7-3.3c-1.1,0-1.9,0.5-2.3,0.9v5.5c0.3,0.2,0.9,0.4,1.9,0.4
		C309.6,125.1,311,123.8,311,121.6z"/>
	<path class="st2" d="M314.7,124c0-2.2,2.1-3.3,4.8-3.3h0.8v-0.6c0-1.1-0.9-1.8-2.1-1.8s-2.1,0.7-2.3,0.9l-0.8-1.4
		c0.3-0.2,1.5-1.2,3.4-1.2c2.2,0,3.8,1.4,3.8,3.5v4.8c0,0.7,0.1,1.2,0.4,1.6l0,0l-2,0.1c-0.2-0.2-0.3-0.6-0.4-0.9
		c-0.4,0.3-1.3,1-2.7,1C316.1,126.8,314.7,125.8,314.7,124z M320.4,124.4v-2.3h-0.9c-1.7,0-2.9,0.6-2.9,1.7c0,1,0.8,1.5,1.7,1.5
		C319.2,125.3,320,124.8,320.4,124.4z"/>
	<path class="st2" d="M325.3,118.4c0-0.8-0.1-1.3-0.2-1.6h1.9c0.1,0.3,0.1,0.6,0.2,1c0.4-0.3,1.6-1.2,3.1-1.2c1.6,0,3.1,1.2,3.1,3.1
		v6.9h-1.9v-6.3c0-1.2-0.8-1.9-1.9-1.9c-1.2,0-2.2,0.8-2.5,1.1v7.2h-1.9L325.3,118.4C325.2,118.4,325.3,118.4,325.3,118.4z"/>
	<path class="st2" d="M338.2,121.6v4.9h-1.9v-14.2l1.9-0.5v9l3.6-4.1h2.2l-4,4.3l4.5,5.4l-2.1,0.2L338.2,121.6z"/>
	<path class="st2" d="M345.9,114.1c0-0.6,0.5-1.2,1.2-1.2c0.8,0,1.2,0.6,1.2,1.2c0,0.7-0.5,1.2-1.2,1.2
		C346.4,115.3,345.9,114.8,345.9,114.1z M346.2,116.8h1.9v9.7h-1.9V116.8z"/>
	<path class="st2" d="M351.2,118.4c0-0.8-0.1-1.3-0.2-1.6h1.9c0.1,0.3,0.1,0.6,0.2,1c0.4-0.3,1.6-1.2,3.1-1.2c1.6,0,3.1,1.2,3.1,3.1
		v6.9h-1.9v-6.3c0-1.2-0.8-1.9-1.9-1.9c-1.2,0-2.2,0.8-2.5,1.1v7.2h-1.9L351.2,118.4C351.1,118.4,351.2,118.4,351.2,118.4z"/>
	<path class="st2" d="M361.1,128.4c0-1.2,0.8-1.9,1.3-2.2c-0.3-0.1-1-0.6-1-1.7s0.9-1.7,1.5-1.9c-0.3-0.2-1.2-1-1.2-2.5
		c0-1.9,1.6-3.4,3.5-3.4c0.5,0,0.8,0.1,1.1,0.2c1.3,0,1.9-0.5,2.2-1.8l1.2,1c-0.2,1.1-0.9,1.7-1.8,1.8c0.3,0.4,0.8,1.1,0.8,2.2
		c0,1.9-1.6,3.4-3.6,3.4c-0.3,0-0.6,0-0.8-0.1c-0.5,0.1-1.4,0.3-1.4,0.9c0,0.5,0.6,0.6,1,0.6l2.6,0.2c1.6,0.1,3,1,3,2.7
		c0,1.8-1.6,3.4-4.7,3.4C363.2,131.1,361.1,130.4,361.1,128.4z M367.9,127.8c0-0.7-0.6-1.1-1.6-1.1l-2.6-0.2
		c-0.4,0.2-1.1,0.7-1.1,1.6c0,1,1.1,1.6,2.5,1.6C366.6,129.7,367.9,129,367.9,127.8z M367.1,120.1c0-1.1-0.7-2-1.9-2s-1.9,1-1.9,2
		c0,1.1,0.7,2,1.9,2S367.1,121.2,367.1,120.1z"/>
</g>
<polygon points="121.5,107.2 133.6,106.3 114.8,83.3 130.7,62.5 119,62.5 105.7,80.6 105.7,62.5 96,62.5 96,106.3 105.7,106.3 
	105.7,87.1 "/>
<path d="M233.6,86.3c0.2-2.7,2-5.4,5.5-5.4s4.9,2.6,5.1,5.4H233.6z M240.7,106.8c7.3,0,11-2.6,12.6-3.7l-3.8-6.8
	c-1.2,0.8-3.6,2.5-7.8,2.5c-5,0-8-2.4-8.3-5.7h20.7c0-11.8-5.1-20-15.1-20c-9,0-15.1,7.6-15.1,16.9
	C223.9,99.9,230.7,106.8,240.7,106.8z"/>
<path d="M258.3,106.3h9.2V84.4c1.1-1,3.5-3,6.6-3s4.6,2.4,4.6,4.7v20.2h9.2V83.4c0-6.2-5-10.1-10.5-10.1c-5,0-8.6,2.8-10,3.9
	c-0.1-1.1-0.3-2.3-0.7-3.2h-9.2c0.2,0.8,0.7,2.7,0.7,5.7L258.3,106.3L258.3,106.3z"/>
<path d="M166.4,106.3h9.2V84.4c1.1-1,3.5-3,6.6-3s4.6,2.4,4.6,4.7v20.2h9.2V83.4c0-6.2-5-10.1-10.5-10.1c-5,0-8.6,2.8-10,3.9
	c-0.1-1.1-0.3-2.3-0.7-3.2h-9.2c0.2,0.8,0.7,2.7,0.7,5.7L166.4,106.3L166.4,106.3z"/>
<path d="M146.9,98.8c-4.9,0-6.6-4.5-6.6-8.8s1.6-8.8,6.6-8.8s6.6,4.5,6.6,8.8S151.9,98.8,146.9,98.8z M146.9,106.8
	c8.6,0,16.1-6.2,16.1-16.8s-7.5-16.8-16.1-16.8s-16.1,6.2-16.1,16.8C130.9,100.6,138.3,106.8,146.9,106.8z"/>
<path d="M210.4,106.6c6.4,0,11.4-4.3,11.3-10.4c-0.1-6.2-5.4-8.7-7.8-9.9c-2.5-1.2-5.3-2.3-5.3-4.1c0-1.4,1.3-1.8,3-1.8
	c3.1,0,5.8,1.7,6.7,2.3l3.3-6.9c-1.1-0.7-4.7-2.8-9.9-2.8c-5.9,0-11.3,3.7-11.3,10.1s4.8,8.6,7.5,9.8c2.1,1,5.6,2.1,5.6,4.1
	c0,1.7-1.9,2.3-3.9,2.3c-3.3,0-6.2-1.9-7-2.4l-3.6,6.4C200.7,104.5,204.4,106.6,210.4,106.6z"/>
<path d="M358.6,106.6c6.4,0,11.4-4.3,11.3-10.4c-0.1-6.2-5.4-8.7-7.8-9.9c-2.5-1.2-5.3-2.3-5.3-4.1c0-1.4,1.3-1.8,3-1.8
	c3.1,0,5.8,1.7,6.7,2.3l3.3-6.9c-1.1-0.7-4.7-2.8-9.9-2.8c-5.9,0-11.3,3.7-11.3,10.1s4.8,8.6,7.5,9.8c2.1,1,5.6,2.1,5.6,4.1
	c0,1.7-1.9,2.3-3.9,2.3c-3.3,0-6.2-1.9-7-2.4l-3.6,6.4C348.9,104.5,352.6,106.6,358.6,106.6z"/>
<path d="M304.8,107c4.6,0,7.1-1.3,9.1-2.8l-3.4-6.6c-0.9,0.6-1.9,1.2-3.6,1.2c-2.2,0-3.5-1.4-3.5-3.6V81.6h8.2V74h-8.2V63.5H300
	l-5.7,3.4V74h-6.6l3.6,7.6h3.1v14.2C294.3,102.7,298.5,107,304.8,107z"/>
<path d="M325.8,107c4.9,0,8-2.4,10.1-4.1c0,1,0.4,2.6,0.8,3.4h8.6c-0.7-1.6-0.8-3.2-0.8-4.6V74.1h-9.2V96c-1.8,1.8-3.4,3-6.6,3
	c-3.1,0-4.6-2.4-4.6-4.7V74.1h-9.2v21.6C314.8,102.5,318.9,107,325.8,107z"/>
</svg>
